HIERARCHY
ROOT Hips
{
	OFFSET 0.000000 0.000000 0.000000
	CHANNELS 6 Xposition Yposition Zposition Zrotation Yrotation Xrotation 
	JOINT LeftUpLeg_virtual
	{
		OFFSET 0.000000 0.000000 0.000000
		CHANNELS 3 Zrotation Yrotation Xrotation
		JOINT LeftUpLeg
		{
			OFFSET 10.205400 -3.823500 0.155100
			CHANNELS 3 Zrotation Yrotation Xrotation
			JOINT LeftLeg
			{
				OFFSET 0.708757 -12.982077 0.567790
				CHANNELS 3 Zrotation Yrotation Xrotation
				JOINT LeftFoot
				{
					OFFSET -0.708756 -10.717838 -2.184338
					CHANNELS 3 Zrotation Yrotation Xrotation
					JOINT LeftToeBase
					{
						OFFSET 0.108149 -7.191104 7.560241
						CHANNELS 3 Zrotation Yrotation Xrotation
						End Site
						{
							OFFSET 0.000000 0.000000 0.000000
						}
					}
				}
			}
		}
	}
	JOINT RightUpLeg_virtual
	{
		OFFSET 0.000000 0.000000 0.000000
		CHANNELS 3 Zrotation Yrotation Xrotation
		JOINT RightUpLeg
		{
			OFFSET -10.205400 -3.823500 0.005500
			CHANNELS 3 Zrotation Yrotation Xrotation
			JOINT RightLeg
			{
				OFFSET -0.708756 -12.982134 0.610632
				CHANNELS 3 Zrotation Yrotation Xrotation
				JOINT RightFoot
				{
					OFFSET 0.708754 -10.717769 -1.945823
					CHANNELS 3 Zrotation Yrotation Xrotation
					JOINT RightToeBase
					{
						OFFSET -0.108140 -7.191069 7.372968
						CHANNELS 3 Zrotation Yrotation Xrotation
						End Site
						{
							OFFSET 0.000000 0.000000 0.000000
						}
					}
				}
			}
		}
	}
	JOINT Spine_virtual
	{
		OFFSET 0.000000 0.000000 0.000000
		CHANNELS 3 Zrotation Yrotation Xrotation
		JOINT Spine
		{
			OFFSET 0.000000 6.876099 0.125700
			CHANNELS 3 Zrotation Yrotation Xrotation
			JOINT Spine1
			{
				OFFSET 0.000000 8.022060 0.146608
				CHANNELS 3 Zrotation Yrotation Xrotation
				JOINT Spine2
				{
					OFFSET 0.000000 9.168068 0.167552
					CHANNELS 3 Zrotation Yrotation Xrotation
					JOINT Neck_virtual
					{
						OFFSET 0.000000 0.000000 0.000000
						CHANNELS 3 Zrotation Yrotation Xrotation
						JOINT Neck
						{
							OFFSET 0.000000 10.314075 0.188496
							CHANNELS 3 Zrotation Yrotation Xrotation
							JOINT Head
							{
								OFFSET 0.000000 7.643700 -2.377400
								CHANNELS 3 Zrotation Yrotation Xrotation
								End Site
								{
									OFFSET 0.000000 0.000000 0.000000
								}
							}
						}
					}
					JOINT LeftShoulder_virtual
					{
						OFFSET 0.000000 0.000000 0.000000
						CHANNELS 3 Zrotation Yrotation Xrotation
						JOINT LeftShoulder
						{
							OFFSET 4.392200 8.824978 0.174984
							CHANNELS 3 Zrotation Yrotation Xrotation
							JOINT LeftArm
							{
								OFFSET 8.771219 -2.981674 -0.026999
								CHANNELS 3 Zrotation Yrotation Xrotation
								JOINT LeftForeArm
								{
									OFFSET 8.512804 0.000000 -0.000000
									CHANNELS 3 Zrotation Yrotation Xrotation
									JOINT LeftHand
									{
										OFFSET 18.484802 0.000000 -0.000000
										CHANNELS 3 Zrotation Yrotation Xrotation
										End Site
										{
											OFFSET 0.000000 0.000000 0.000000
										}
									}
								}
							}
						}
					}
					JOINT RightShoulder_virtual
					{
						OFFSET 0.000000 0.000000 0.000000
						CHANNELS 3 Zrotation Yrotation Xrotation
						JOINT RightShoulder
						{
							OFFSET -4.392200 8.824993 0.141379
							CHANNELS 3 Zrotation Yrotation Xrotation
							JOINT RightArm
							{
								OFFSET -8.771282 -2.981682 -0.094208
								CHANNELS 3 Zrotation Yrotation Xrotation
								JOINT RightForeArm
								{
									OFFSET -8.494598 0.000000 0.000000
									CHANNELS 3 Zrotation Yrotation Xrotation
									JOINT RightHand
									{
										OFFSET -18.483803 0.000000 0.000001
										CHANNELS 3 Zrotation Yrotation Xrotation
										End Site
										{
											OFFSET 0.000000 0.000000 0.000000
										}
									}
								}
							}
						}
					}
				}
			}
		}
	}
}
MOTION
Frames: 10
Frame Time: 0.033333
-4.921294 36.489887 37.341721 179.228535 4.700233 -179.911240 -2.307797 -3.441569 9.972382 -8.473837 1.586487 -18.356238 8.749629 6.498179 15.740152 -5.676047 -1.867846 10.673437 0.000000 0.000000 0.000000 6.111560 -1.698289 7.841435 -5.139176 -3.092664 -8.260899 -7.289011 4.378928 14.678589 8.648094 8.331311 13.706929 0.000000 0.000000 0.000000 1.959422 0.158821 0.108016 -5.081500 1.978748 -8.963724 0.575648 -3.995946 3.125508 0.051438 0.037950 0.005960 0.511387 -2.317799 5.123631 1.269434 3.753663 0.576153 0.000000 0.000000 0.000000 1.874113 -1.379262 2.410307 1.670068 -0.345155 -5.185714 -11.587710 18.478305 -23.066893 -7.178434 -25.713704 -0.910591 0.000000 0.000000 0.000000 -1.716842 -0.579042 2.052971 4.877317 -4.683916 -9.859664 23.025713 -33.102379 -25.423605 -0.783286 35.078622 -6.765336 0.000000 0.000000 0.000000 
-4.935220 36.485310 37.372066 178.734972 4.962360 -179.750239 -2.698687 -3.516553 9.931858 -8.552050 1.353570 -18.279721 8.856559 6.556469 15.773605 -5.481328 -1.699282 10.736209 0.000000 0.000000 0.000000 6.337770 -1.608142 7.950785 -5.336195 -2.392560 -8.133902 -7.706377 5.073474 14.578858 8.265753 8.122987 14.150757 0.000000 0.000000 0.000000 1.645423 0.143688 -0.012773 -5.259902 1.986910 -8.786407 0.487457 -3.944902 3.095785 0.114299 0.078477 -0.037384 0.497685 -2.119704 5.108616 1.312704 3.689540 0.722867 0.000000 0.000000 0.000000 1.868945 -1.303355 2.350092 1.717650 -0.364841 -5.099257 -11.706806 18.592361 -23.207694 -7.218044 -25.725265 -0.764603 0.000000 0.000000 0.000000 -1.739663 -0.548173 2.083748 4.946401 -4.681536 -10.061186 23.011976 -33.094008 -25.533829 -0.723712 35.172913 -6.663990 0.000000 0.000000 0.000000 
-4.943944 36.485828 37.389687 178.770953 5.086226 -179.846476 -2.663443 -3.477857 9.903786 -8.521526 1.258878 -18.173774 8.857492 6.625106 15.846508 -5.397388 -1.635399 10.687388 0.000000 0.000000 0.000000 6.407921 -1.655366 7.896607 -5.452099 -2.411866 -8.132564 -7.648962 5.123023 14.701854 8.358982 8.217488 14.173326 0.000000 0.000000 0.000000 1.670648 0.114662 0.233757 -5.200847 1.993169 -8.773338 0.463649 -3.895328 3.089873 0.073041 0.109497 0.015932 0.526224 -2.253008 5.099850 1.362692 3.635684 0.755205 0.000000 0.000000 0.000000 1.895837 -1.319216 2.306557 1.749952 -0.470050 -5.134677 -11.944444 18.842655 -23.297618 -7.157546 -25.826086 -0.703203 0.000000 0.000000 0.000000 -1.702712 -0.535467 1.978033 5.053515 -4.711153 -9.783359 23.047959 -33.118621 -25.620449 -0.843314 35.263973 -6.688134 0.000000 0.000000 0.000000 
-4.939228 36.485703 37.397144 178.678254 5.150572 -179.830070 -2.740708 -3.525533 9.842631 -8.489919 1.131096 -18.170374 8.794937 6.652696 15.903696 -5.314750 -1.544223 10.711763 0.000000 0.000000 0.000000 6.331088 -1.623490 7.806408 -5.454750 -2.438437 -8.207412 -7.556381 5.316228 14.910141 8.272321 8.022700 14.123681 0.000000 0.000000 0.000000 1.566530 0.207833 0.252570 -5.182690 1.998036 -8.654010 0.444995 -3.924145 3.059242 0.124416 0.084201 0.018418 0.449524 -2.193113 5.068346 1.285307 3.428832 0.882103 0.000000 0.000000 0.000000 1.833122 -1.304754 2.306333 1.783281 -0.585383 -5.118597 -12.200834 19.071459 -23.152584 -7.016053 -25.890327 -0.588083 0.000000 0.000000 0.000000 -1.757610 -0.551877 1.956972 5.091984 -4.757982 -9.595427 23.139144 -33.145747 -25.704773 -0.918222 35.464494 -6.609994 0.000000 0.000000 0.000000 
-4.927105 36.486313 37.402424 178.800036 5.290304 -179.801492 -2.631159 -3.513834 9.815999 -8.399989 1.059669 -18.266431 8.704949 6.618159 16.150682 -5.219142 -1.450464 10.630841 0.000000 0.000000 0.000000 6.463351 -1.560628 7.747848 -5.496965 -2.501326 -8.320839 -7.397269 5.479950 15.141493 8.204056 7.927655 14.080286 0.000000 0.000000 0.000000 1.636465 0.194460 0.226773 -5.063143 2.056001 -8.504837 0.442966 -3.877146 3.029876 0.099525 0.116372 0.000725 0.430203 -2.117291 4.994191 1.262500 3.256652 1.035191 0.000000 0.000000 0.000000 1.796378 -1.303876 2.247661 1.887886 -0.772867 -5.051027 -12.531713 19.368104 -23.013257 -6.760648 -26.066621 -0.533343 0.000000 0.000000 0.000000 -1.794862 -0.559211 1.885353 5.258067 -4.721204 -9.317764 23.324217 -33.128429 -25.920366 -0.971002 35.647693 -6.452225 0.000000 0.000000 0.000000 
-4.911249 36.487022 37.430984 178.392274 5.343305 -179.804388 -3.016568 -3.586165 9.801140 -8.290262 0.936309 -18.487710 8.585895 6.602842 16.337713 -5.119222 -1.353931 10.717119 0.000000 0.000000 0.000000 6.247758 -1.552375 7.691109 -5.676788 -2.544834 -8.547381 -7.295203 5.760153 15.492964 8.143267 7.785961 13.916018 0.000000 0.000000 0.000000 1.227581 0.257264 0.174178 -5.101811 2.105992 -8.330619 0.436351 -3.924214 2.979090 0.193215 0.070774 0.018320 0.459909 -2.289748 4.921372 1.134887 2.947648 1.224717 0.000000 0.000000 0.000000 1.822592 -1.278930 2.176462 1.923942 -0.898650 -5.085622 -13.144409 19.920166 -22.911723 -6.593083 -26.416363 -0.385344 0.000000 0.000000 0.000000 -1.745579 -0.549419 1.834713 5.324745 -4.608570 -9.039739 23.374086 -33.144900 -25.827238 -1.059923 35.762727 -6.272595 0.000000 0.000000 0.000000 
-4.900737 36.486927 37.501541 178.759397 5.402245 -179.772150 -2.694274 -3.537142 9.765738 -8.107828 1.054020 -18.829978 8.410433 6.473353 16.784985 -5.057195 -1.275642 10.673439 0.000000 0.000000 0.000000 6.659297 -1.546467 7.625688 -5.787869 -2.652568 -8.803602 -7.039461 5.966475 15.805186 8.064310 7.814260 13.824135 0.000000 0.000000 0.000000 1.495998 0.227662 0.149146 -4.877325 2.237909 -8.086326 0.414524 -3.875624 2.948635 0.082393 0.075497 -0.010187 0.444495 -2.165533 4.764824 1.106263 2.706561 1.376116 0.000000 0.000000 0.000000 1.804659 -1.275060 2.101221 2.072964 -1.066831 -4.966907 -13.784872 20.643359 -22.443745 -6.256901 -27.055629 -0.353942 0.000000 0.000000 0.000000 -1.737137 -0.550414 1.745874 5.524607 -4.445779 -8.697137 23.913087 -33.184133 -26.161909 -1.232717 36.047976 -6.199951 0.000000 0.000000 0.000000 
-4.884696 36.487041 37.611385 178.761569 5.579054 -179.839687 -2.764119 -3.373609 9.770206 -7.868395 1.172991 -19.249999 8.214196 6.414925 17.362274 -5.024325 -1.235965 10.647980 0.000000 0.000000 0.000000 6.729710 -1.460850 7.557503 -5.858175 -2.643049 -9.099502 -6.790647 6.284728 16.271397 7.861267 7.655763 13.644622 0.000000 0.000000 0.000000 1.429951 0.205481 0.255972 -4.724173 2.377928 -7.784706 0.418495 -3.834592 2.892081 0.085813 0.078964 0.015076 0.446381 -2.181209 4.645546 1.046162 2.417280 1.589455 0.000000 0.000000 0.000000 1.804551 -1.216997 1.983660 2.120562 -1.142825 -4.819897 -14.863357 21.565544 -22.306527 -6.057862 -28.219731 -0.087586 0.000000 0.000000 0.000000 -1.713957 -0.499445 1.613516 5.718365 -4.161793 -8.292891 24.599503 -33.200064 -26.278222 -1.609944 36.541314 -6.321174 0.000000 0.000000 0.000000 
-4.853763 36.486053 37.770454 178.343670 5.555600 -179.801465 -3.226712 -3.453711 9.698155 -7.589640 1.173888 -19.861608 8.024145 6.447277 17.918259 -5.028586 -1.209586 10.803197 0.000000 0.000000 0.000000 6.452274 -1.395728 7.438675 -5.910251 -2.726480 -9.539743 -6.506813 6.728164 16.712071 7.521800 7.280877 13.423564 0.000000 0.000000 0.000000 0.964135 0.294702 0.342899 -4.702791 2.537033 -7.485220 0.465504 -3.831582 2.830641 0.204734 0.068995 -0.002631 0.548944 -2.271327 4.507235 0.781821 1.928242 1.770253 0.000000 0.000000 0.000000 1.897639 -1.271454 1.985373 1.983851 -1.247904 -4.845608 -16.352795 22.587594 -21.757692 -5.645943 -30.042946 0.070636 0.000000 0.000000 0.000000 -1.629096 -0.562590 1.503628 5.793599 -3.966935 -7.727273 25.593081 -33.376471 -26.514004 -1.845941 37.349718 -6.305752 0.000000 0.000000 0.000000 
-4.818418 36.479206 37.979706 178.732226 5.688551 -179.886433 -2.925056 -3.283996 9.652182 -7.162439 1.235209 -20.573768 7.827289 6.626329 18.765197 -5.136108 -1.201414 10.757142 0.000000 0.000000 0.000000 6.858138 -1.290211 7.359608 -5.893509 -2.872633 -10.038238 -6.070902 7.123670 17.319671 7.177009 7.148169 13.248435 0.000000 0.000000 0.000000 1.243088 0.248883 0.604960 -4.381449 2.725330 -7.048993 0.466166 -3.685956 2.841109 0.133093 0.140741 0.031029 0.515713 -2.091300 4.370621 0.677021 1.569920 2.040029 0.000000 0.000000 0.000000 1.856468 -1.288291 1.886502 1.912939 -1.305767 -4.518345 -18.061378 23.590200 -21.004963 -5.375937 -32.418082 0.395365 0.000000 0.000000 0.000000 -1.654523 -0.562072 1.348496 6.120513 -3.710380 -7.227044 27.042947 -33.578812 -26.749679 -2.315254 38.819213 -6.522684 0.000000 0.000000 0.000000 
